<svg xmlns="http://www.w3.org/2000/svg" xmlns:xlink="http://www.w3.org/1999/xlink" viewBox="0 0 244 66.52"><defs><style>.cls-1,.cls-6,.cls-8{fill:none;}.cls-2{fill:#179bd7;}.cls-3{fill:#253b80;}.cls-4{fill:#222d65;}.cls-5{fill:#898989;}.cls-6{stroke:#d8d8d8;}.cls-6,.cls-8{stroke-miterlimit:10;}.cls-7{fill:#1f3a70;}.cls-8{stroke:#d3d3d3;stroke-width:0.75px;}.cls-9{fill:#f90;}.cls-10{fill:#c00;}.cls-11{fill:#fcb340;}.cls-12{fill:#006;}.cls-13,.cls-22{fill:#fff;}.cls-14{fill:#03115a;}.cls-15{fill:url(#gradient_2);}.cls-16{fill:#f48120;}.cls-17{fill:#231f20;}.cls-18{fill:url(#gradient_3);}.cls-19{opacity:0.65;isolation:isolate;fill:url(#gradient_4);}.cls-20{opacity:0.5;}.cls-21{clip-path:url(#clip-path);}.cls-22{fill-opacity:0;}</style><radialGradient id="gradient_2" cx="135.84" cy="-573.61" r="18.05" gradientTransform="matrix(1.52, 1.63, 1.5, -1.4, 796.96, -995.97)" gradientUnits="userSpaceOnUse"><stop offset="0" stop-color="#7fd3f3"/><stop offset="1" stop-color="#017cc2"/></radialGradient><linearGradient id="gradient_3" x1="-1100.39" y1="1289.93" x2="-1100.84" y2="1290.64" gradientTransform="matrix(6.46, 0, 0, -6.46, 7319.09, 8370.61)" gradientUnits="userSpaceOnUse"><stop offset="0" stop-color="#f89f20"/><stop offset="0.25" stop-color="#f79a20"/><stop offset="0.53" stop-color="#f68d20"/><stop offset="0.62" stop-color="#f58720"/><stop offset="0.72" stop-color="#f48120"/><stop offset="1" stop-color="#f37521"/></linearGradient><linearGradient id="gradient_4" x1="-1100.46" y1="1289.94" x2="-1101.12" y2="1291.23" gradientTransform="matrix(6.46, 0, 0, -6.46, 7319.09, 8370.61)" gradientUnits="userSpaceOnUse"><stop offset="0" stop-color="#f58720" stop-opacity="0"/><stop offset="0.36" stop-color="#e16f27" stop-opacity="0.27"/><stop offset="0.7" stop-color="#d4602c" stop-opacity="0.53"/><stop offset="0.98" stop-color="#d05b2e" stop-opacity="0.74"/></linearGradient><clipPath id="clip-path"><circle class="cls-1" cx="210.62" cy="36.88" r="4.24"/></clipPath></defs><g id="Слой_2" data-name="Слой 2"><g id="PPlogo"><path class="cls-2" d="M193,4.53a3.39,3.39,0,0,0-2.66-.93h-3.64a.51.51,0,0,0-.5.42l-1.48,9.35a.31.31,0,0,0,.3.35h1.87a.35.35,0,0,0,.35-.3l.42-2.65a.51.51,0,0,1,.5-.43h1.15c2.4,0,3.79-1.16,4.15-3.46A2.78,2.78,0,0,0,193,4.53ZM190.77,7c-.2,1.31-1.2,1.31-2.16,1.31h-.55l.38-2.45a.31.31,0,0,1,.3-.25H189c.65,0,1.27,0,1.6.37A1.21,1.21,0,0,1,190.77,7Z"/><path class="cls-2" d="M201.24,7H199.5a.3.3,0,0,0-.3.25l-.08.49L199,7.53a2.51,2.51,0,0,0-2.06-.73,4,4,0,0,0-3.9,3.51,3.32,3.32,0,0,0,.65,2.68,2.74,2.74,0,0,0,2.2.89,3.34,3.34,0,0,0,2.42-1l-.08.49a.3.3,0,0,0,.3.35h1.57a.51.51,0,0,0,.5-.43l.94-6A.3.3,0,0,0,201.24,7Zm-2.43,3.39a2,2,0,0,1-2,1.67,1.47,1.47,0,0,1-1.17-.47,1.49,1.49,0,0,1-.27-1.23,1.94,1.94,0,0,1,1.95-1.68,1.38,1.38,0,0,1,1.46,1.71Z"/><path class="cls-2" d="M205.28,3.6H203.6a.29.29,0,0,0-.3.25l-1.49,9.52a.3.3,0,0,0,.3.35h1.5a.51.51,0,0,0,.5-.43L205.58,4A.3.3,0,0,0,205.28,3.6Z"/><path class="cls-3" d="M167,4.53a3.39,3.39,0,0,0-2.66-.93h-3.65a.51.51,0,0,0-.5.42l-1.47,9.35a.3.3,0,0,0,.3.35h1.74a.51.51,0,0,0,.5-.43l.4-2.52a.51.51,0,0,1,.5-.43h1.15c2.4,0,3.79-1.16,4.15-3.46A2.81,2.81,0,0,0,167,4.53ZM164.78,7c-.2,1.31-1.2,1.31-2.16,1.31h-.55l.38-2.45a.3.3,0,0,1,.3-.25H163c.66,0,1.28,0,1.6.37A1.24,1.24,0,0,1,164.78,7Z"/><path class="cls-3" d="M175.25,7h-1.74a.3.3,0,0,0-.3.25l-.08.49L173,7.53A2.51,2.51,0,0,0,171,6.8a4,4,0,0,0-3.9,3.51A3.28,3.28,0,0,0,167.7,13a2.72,2.72,0,0,0,2.2.89,3.33,3.33,0,0,0,2.41-1l-.07.49a.3.3,0,0,0,.3.35h1.57a.51.51,0,0,0,.5-.43l.94-6A.3.3,0,0,0,175.25,7Zm-2.43,3.39a2,2,0,0,1-2,1.67,1.46,1.46,0,0,1-1.17-.47,1.49,1.49,0,0,1-.28-1.23,2,2,0,0,1,2-1.68,1.46,1.46,0,0,1,1.16.48A1.47,1.47,0,0,1,172.82,10.36Z"/><path class="cls-3" d="M184.55,7h-1.76a.51.51,0,0,0-.42.22L180,10.75l-1-3.42a.5.5,0,0,0-.49-.36h-1.72a.31.31,0,0,0-.29.4L178.36,13l-1.81,2.56a.3.3,0,0,0,.24.48h1.76a.49.49,0,0,0,.41-.22l5.83-8.42A.3.3,0,0,0,184.55,7Z"/><path class="cls-2" d="M152.73,4.63a2.43,2.43,0,0,0-.71-.54h0a2.5,2.5,0,0,0-.05.29l-.06.27a5,5,0,0,1-4.74,4.23l-.47,0h-2a.72.72,0,0,0-.71.61l-.66,4.21-.09.55L143,15.65a.37.37,0,0,0,.37.43H146a.62.62,0,0,0,.62-.53l0-.13.49-3.11,0-.17a.63.63,0,0,1,.62-.53h.39c2.52,0,4.49-1,5.07-4A3.4,3.4,0,0,0,152.73,4.63Z"/><path class="cls-3" d="M144,9.54l0-.16.83-5.28a.66.66,0,0,1,.62-.53h3.91a7.54,7.54,0,0,1,1.3.1l.33.06.31.08.11,0h.05a5.08,5.08,0,0,1,.52.22h0a3.21,3.21,0,0,0-.68-2.88C150.59.36,149.25,0,147.53,0h-5a.73.73,0,0,0-.71.6l-2.08,13.2a.43.43,0,0,0,.42.5h3.09l.09-.55Z"/><path class="cls-4" d="M152,4.08l-.53-.22h-.05l-.11,0L151,3.73l-.33-.06a8.69,8.69,0,0,0-1.3-.1h-3.91a.66.66,0,0,0-.62.53L144,9.38l0,.16a.72.72,0,0,1,.71-.61h2l.47,0a5,5,0,0,0,4.74-4.23l.06-.27a2.5,2.5,0,0,1,.05-.29Z"/><path class="cls-5" d="M20.59,11.45a2,2,0,0,0,.27,1,1.75,1.75,0,0,0,1.6.7A2.77,2.77,0,0,0,23.4,13a1.07,1.07,0,0,0,.82-1.06.92.92,0,0,0-.34-.82,3.58,3.58,0,0,0-1.11-.42l-.92-.21A4.38,4.38,0,0,1,20.57,10a1.5,1.5,0,0,1-.64-1.32,2,2,0,0,1,.63-1.55,2.51,2.51,0,0,1,1.81-.61,3.1,3.1,0,0,1,1.82.53,2,2,0,0,1,.75,1.71h-.89a1.85,1.85,0,0,0-.29-.87,1.69,1.69,0,0,0-1.42-.55,1.58,1.58,0,0,0-1.16.36,1.14,1.14,0,0,0-.35.82.8.8,0,0,0,.42.75,5.67,5.67,0,0,0,1.23.39l1,.22a2.84,2.84,0,0,1,1.06.45,1.67,1.67,0,0,1,.65,1.42,1.8,1.8,0,0,1-.83,1.67,3.57,3.57,0,0,1-1.92.5,2.86,2.86,0,0,1-2-.66,2.32,2.32,0,0,1-.71-1.81Z"/><path class="cls-5" d="M26.64,6.7h5.1v.86H27.57V9.69h3.85v.81H27.57v2.38h4.24v.84H26.64Z"/><path class="cls-5" d="M38.11,7.21a2.49,2.49,0,0,1,.8,1.6H38a1.94,1.94,0,0,0-.62-1.08,2,2,0,0,0-1.3-.4,2.06,2.06,0,0,0-1.64.73,3.36,3.36,0,0,0-.63,2.24,3.34,3.34,0,0,0,.56,2,2,2,0,0,0,1.69.77,1.78,1.78,0,0,0,1.58-.81,3,3,0,0,0,.42-1.12H39A3.17,3.17,0,0,1,38.17,13a3.16,3.16,0,0,1-4.26.16,3.85,3.85,0,0,1-1.09-3,3.85,3.85,0,0,1,.82-2.55,2.94,2.94,0,0,1,2.42-1.08A2.83,2.83,0,0,1,38.11,7.21Z"/><path class="cls-5" d="M41.3,6.7V11a2.57,2.57,0,0,0,.28,1.27,1.53,1.53,0,0,0,1.45.76,1.71,1.71,0,0,0,1.66-.82A2.74,2.74,0,0,0,44.92,11V6.7h1v3.94a4.44,4.44,0,0,1-.35,2,2.45,2.45,0,0,1-2.42,1.28,2.47,2.47,0,0,1-2.43-1.28,4.58,4.58,0,0,1-.35-2V6.7Z"/><path class="cls-5" d="M47.51,6.7H50.7a3.22,3.22,0,0,1,1.3.23,1.66,1.66,0,0,1,1,1.66,1.81,1.81,0,0,1-.26,1,1.78,1.78,0,0,1-.73.65,1.41,1.41,0,0,1,.62.44,1.5,1.5,0,0,1,.23.88l0,.94a3.48,3.48,0,0,0,.06.6.59.59,0,0,0,.31.43v.16H52.07a1,1,0,0,1-.07-.24,3.65,3.65,0,0,1,0-.55l-.06-1.17a1,1,0,0,0-.49-.92,2,2,0,0,0-.84-.13h-2.1v3h-1ZM50.6,9.91a1.75,1.75,0,0,0,1-.26,1.12,1.12,0,0,0,.38-1,1,1,0,0,0-.53-1,1.63,1.63,0,0,0-.76-.15H48.46v2.4Z"/><path class="cls-5" d="M54.61,6.7h5.1v.86H55.54V9.69h3.85v.81H55.54v2.38h4.24v.84H54.61Z"/><path class="cls-5" d="M64,6.7h3.14a2.13,2.13,0,0,1,1.51.53,1.91,1.91,0,0,1,.57,1.48,2.16,2.16,0,0,1-.51,1.43,1.92,1.92,0,0,1-1.57.61H64.93v3H64Zm3.69,1a2,2,0,0,0-.86-.15H64.93V10h1.88a1.79,1.79,0,0,0,1-.27,1.1,1.1,0,0,0,.4-1A1.07,1.07,0,0,0,67.67,7.66Z"/><path class="cls-5" d="M71.8,6.7h1.08l2.55,7H74.38l-.73-2.1H70.9l-.77,2.1h-1Zm1.58,4.14L72.3,7.74l-1.12,3.1Z"/><path class="cls-5" d="M75.08,6.7h1.11l2,3.37,2-3.37h1.12l-2.66,4.19v2.83h-1V10.89Z"/><path class="cls-5" d="M82.18,6.7h1.37l2,5.93,2-5.93h1.35v7H88V8.86c0-.33,0-.68,0-1.06l-2,5.92h-.94l-2-5.92V8c0,.17,0,.44,0,.79s0,.61,0,.77v4.15h-.91Z"/><path class="cls-5" d="M90.51,6.7h5.1v.86H91.44V9.69h3.85v.81H91.44v2.38h4.24v.84H90.51Z"/><path class="cls-5" d="M97,6.7h1.12l3.5,5.67V6.7h.91v7h-1.07L97.92,8.05v5.67H97Z"/><path class="cls-5" d="M109.24,6.7v.83h-2.37v6.19h-1V7.53h-2.36V6.7Z"/><path class="cls-5" d="M110.8,11.45a2,2,0,0,0,.27,1,1.75,1.75,0,0,0,1.6.7,2.77,2.77,0,0,0,.94-.15,1.07,1.07,0,0,0,.82-1.06.92.92,0,0,0-.34-.82,3.58,3.58,0,0,0-1.11-.42l-.92-.21a4.38,4.38,0,0,1-1.28-.46,1.5,1.5,0,0,1-.64-1.32,2,2,0,0,1,.63-1.55,2.51,2.51,0,0,1,1.81-.61,3.1,3.1,0,0,1,1.82.53,2,2,0,0,1,.75,1.71h-.89a1.85,1.85,0,0,0-.29-.87,1.69,1.69,0,0,0-1.42-.55,1.58,1.58,0,0,0-1.16.36,1.14,1.14,0,0,0-.35.82.8.8,0,0,0,.42.75,5.67,5.67,0,0,0,1.23.39l1,.22a2.84,2.84,0,0,1,1.06.45,1.67,1.67,0,0,1,.65,1.42,1.8,1.8,0,0,1-.83,1.67,3.57,3.57,0,0,1-1.92.5,2.86,2.86,0,0,1-2-.66,2.32,2.32,0,0,1-.71-1.81Z"/><path class="cls-5" d="M119.52,6.7h3a2,2,0,0,1,1.77.73,1.75,1.75,0,0,1,.31,1,1.61,1.61,0,0,1-.38,1.09,1.9,1.9,0,0,1-.57.41,2.33,2.33,0,0,1,.81.46,1.68,1.68,0,0,1,.47,1.27,2,2,0,0,1-.42,1.23,2.46,2.46,0,0,1-2,.82h-3Zm2.68,3a2.16,2.16,0,0,0,.94-.17,1,1,0,0,0,.53-.95.91.91,0,0,0-.56-.93,2.8,2.8,0,0,0-1-.13h-1.71V9.67Zm.32,3.24a1.46,1.46,0,0,0,1.26-.51,1.3,1.3,0,0,0,.23-.77,1,1,0,0,0-.69-1.05,2.59,2.59,0,0,0-1-.14h-1.9v2.47Z"/><path class="cls-5" d="M125.59,6.7h1.11l2,3.37,2-3.37h1.12l-2.66,4.19v2.83h-.95V10.89Z"/><path class="cls-6" d="M16.81,10.08H4A3.46,3.46,0,0,0,.5,13.55v49A3.46,3.46,0,0,0,4,66h236.1a3.46,3.46,0,0,0,3.45-3.46v-49a3.46,3.46,0,0,0-3.45-3.47H209.83"/><rect class="cls-7" x="7.04" y="23.77" width="56.37" height="35.46" rx="4.27"/><rect class="cls-8" x="71.43" y="23.77" width="56.37" height="35.46" rx="3.91"/><g id="layer1"><g id="g10305"><path id="path2268" class="cls-9" d="M61,41.66a15.78,15.78,0,1,1-31.55,0h0a15.78,15.78,0,1,1,31.55,0Z"/><path id="path1350" class="cls-10" d="M24,25.89A15.78,15.78,0,1,0,34.69,53.33h0a15.93,15.93,0,0,0,1.6-1.69H33.06A16.85,16.85,0,0,1,31.88,50h5.58a14.47,14.47,0,0,0,.92-1.69H31a14.48,14.48,0,0,1-.65-1.65H39a16,16,0,0,0,.81-5,16.35,16.35,0,0,0-.36-3.38H29.84a15.45,15.45,0,0,1,.45-1.65H39a15.68,15.68,0,0,0-.68-1.69H31a15.77,15.77,0,0,1,.91-1.66h5.57a15.49,15.49,0,0,0-1.23-1.69h-3.1A14.82,14.82,0,0,1,34.69,30a15.73,15.73,0,0,0-10.62-4.11Z"/><path id="use9412" class="cls-11" d="M59.43,49.91a.47.47,0,0,1,.25.07.44.44,0,0,1,.19.19.48.48,0,0,1,0,.5.39.39,0,0,1-.19.19.45.45,0,0,1-.25.07.51.51,0,0,1-.26-.07.37.37,0,0,1-.18-.19.48.48,0,0,1,0-.5.39.39,0,0,1,.19-.19.45.45,0,0,1,.25-.07m0,.08a.42.42,0,0,0-.21.06.41.41,0,0,0-.16.16.42.42,0,0,0-.06.21.39.39,0,0,0,.06.21.41.41,0,0,0,.16.16.39.39,0,0,0,.21.06.42.42,0,0,0,.21-.06.41.41,0,0,0,.16-.16.5.5,0,0,0,.05-.21.54.54,0,0,0-.05-.21.41.41,0,0,0-.16-.16.42.42,0,0,0-.21-.06m-.23.71v-.55h.19l.14,0a.13.13,0,0,1,.07,0,.13.13,0,0,1,0,.08.21.21,0,0,1,0,.11.22.22,0,0,1-.12.05l.05,0a.38.38,0,0,1,.08.11l.07.1h-.11l-.05-.08a.65.65,0,0,0-.09-.13l-.07,0h-.06v.23h-.08m.08-.31h.11c.05,0,.09,0,.11,0a.11.11,0,0,0,0-.06s0,0,0,0,0,0,0,0h-.19v.16"/></g><g id="g16480"><g id="g13802"><path id="path13804" class="cls-12" d="M29.31,46.19l.21-1.43c-.12,0-.28.05-.43.05-.59,0-.66-.31-.62-.54l.58-2.87h.89l.18-1.62h-.84l.18-1H27.7s-1,5.52-1,6.19a1.25,1.25,0,0,0,1.34,1.42A4.88,4.88,0,0,0,29.31,46.19Z"/><path id="path13806" class="cls-12" d="M29.84,43.47a2.63,2.63,0,0,0,2.9,2.93,5.17,5.17,0,0,0,1.88-.28l.3-1.62a6.12,6.12,0,0,1-1.89.42c-1.8,0-1.49-1.34-1.49-1.34H35a12.16,12.16,0,0,0,.22-1.53,2.31,2.31,0,0,0-2.45-2.47C31.09,39.59,29.84,41.41,29.84,43.47Zm2.95-2.38c.94,0,.77,1.07.77,1.16H31.69C31.69,42.14,31.87,41.09,32.79,41.09Z"/><path id="path13808" class="cls-12" d="M43.42,46.19l.3-1.83a4,4,0,0,1-1.39.41,1.66,1.66,0,0,1-1.67-1.89c0-2,1-3.07,2.17-3.07a3,3,0,0,1,1.54.48l.28-1.78A3.31,3.31,0,0,0,43,37.92c-2.62,0-4.12,1.82-4.12,5C38.84,45,40,46.42,42,46.42A7.72,7.72,0,0,0,43.42,46.19Z"/><path id="path13810" class="cls-12" d="M20.07,39.62A5.77,5.77,0,0,0,18,40l-.25,1.44a5.41,5.41,0,0,1,1.83-.29c.63,0,1.08.07,1.08.58a1.22,1.22,0,0,1-.05.42s-.49,0-.72,0c-1.64,0-3,.62-3,2.49a1.59,1.59,0,0,0,1.62,1.81,2.07,2.07,0,0,0,1.68-.75v.62h1.48l.66-4.63A2,2,0,0,0,20.07,39.62Zm.26,3.75c0,.29-.08,1.62-1.09,1.62a.62.62,0,0,1-.66-.63c0-.46.25-1,1.48-1C20.35,43.34,20.28,43.36,20.33,43.37Z"/><path id="path13812" class="cls-12" d="M24,46.36c.38,0,2.54.1,2.54-2.13s-2-1.68-2-2.51c0-.42.32-.55.92-.55.24,0,1.15.07,1.15.07l.21-1.48a7.94,7.94,0,0,0-1.55-.13c-1.24,0-2.5.49-2.5,2.19,0,1.92,2.1,1.73,2.1,2.54,0,.54-.59.59-1,.59a5.27,5.27,0,0,1-1.49-.26l-.23,1.47A5.61,5.61,0,0,0,24,46.36Z"/><path id="path13814" class="cls-12" d="M57.28,38.27,57,40.53a2.21,2.21,0,0,0-1.62-.87c-1.86,0-2.82,1.86-2.82,4,0,1.37.68,2.72,2.08,2.72a2.11,2.11,0,0,0,1.57-.7l-.08.6h1.64l1.28-8Zm-.72,4.4c0,.89-.44,2.07-1.35,2.07-.61,0-.89-.51-.89-1.3,0-1.3.58-2.16,1.32-2.16S56.56,41.69,56.56,42.67Z"/><path id="path13816" class="cls-12" d="M11,46.28l1-6,.15,6H13.3l2.16-6-1,6h1.72l1.32-8-2.73,0-1.63,4.9,0-4.88h-2.5l-1.35,8Z"/><path id="path13818" class="cls-12" d="M36.85,46.29c.49-2.78.67-5,2.09-4.52a10,10,0,0,1,.92-2.47s-.07-.1-.51-.1c-.75,0-1.76,1.52-1.76,1.52l.15-.94H36.18l-1,6.51Z"/><g id="use14699"><path id="path13810-2" data-name="path13810" class="cls-12" d="M46.94,39.62a5.77,5.77,0,0,0-2,.37l-.25,1.44a5.41,5.41,0,0,1,1.83-.29c.63,0,1.09.07,1.09.58a1,1,0,0,1-.06.42s-.49,0-.72,0c-1.64,0-3,.62-3,2.49a1.59,1.59,0,0,0,1.62,1.81,2,2,0,0,0,1.68-.75v.62h1.48l.66-4.63A2,2,0,0,0,46.94,39.62Zm.26,3.75c0,.29-.08,1.62-1.09,1.62a.62.62,0,0,1-.66-.63c0-.46.25-1,1.48-1C47.22,43.34,47.15,43.36,47.2,43.37Z"/></g><path id="use14701" class="cls-12" d="M51,46.29c.27-2,.77-4.92,2.09-4.52.2-1.08,0-1.08-.43-1.08a7,7,0,0,0-.92,0l.15-.94H50.27l-1.05,6.51Z"/></g><g id="g10289"><path id="path4157" class="cls-13" d="M29.75,45.68,30,44.25c-.12,0-.29,0-.44,0-.58,0-.65-.31-.61-.54l.47-2.91h.89l.22-1.58h-.84l.17-1H28.14s-1,5.52-1,6.19a1.24,1.24,0,0,0,1.34,1.42A4.88,4.88,0,0,0,29.75,45.68Z"/><path id="path4155" class="cls-13" d="M30.28,43a2.64,2.64,0,0,0,2.9,2.94A4.19,4.19,0,0,0,35,45.62l.3-1.62a5.28,5.28,0,0,1-1.78.41c-1.81,0-1.49-1.34-1.49-1.34h3.41a12.16,12.16,0,0,0,.22-1.53,2.25,2.25,0,0,0-2.39-2.46C31.53,39.08,30.28,40.9,30.28,43Zm2.94-2.38c1,0,.78,1.07.78,1.16H32.13C32.13,41.63,32.31,40.58,33.22,40.58Z"/><path id="path4151" class="cls-13" d="M43.86,45.68l.3-1.83a4,4,0,0,1-1.39.41,1.66,1.66,0,0,1-1.67-1.89c0-2,1-3.07,2.17-3.07a3,3,0,0,1,1.54.48L45.09,38a6.08,6.08,0,0,0-1.9-.41c-1.94,0-3.82,1.68-3.82,4.84,0,2.1,1,3.48,3,3.48A7.72,7.72,0,0,0,43.86,45.68Z"/><path id="path4149" class="cls-13" d="M20.51,39.11a5.87,5.87,0,0,0-2,.37l-.24,1.44a5.41,5.41,0,0,1,1.83-.29c.63,0,1.08.07,1.08.58a1.16,1.16,0,0,1-.05.42s-.5,0-.72,0c-1.46,0-3,.62-3,2.49A1.59,1.59,0,0,0,19,45.89a2.2,2.2,0,0,0,1.72-.77l-.05.64h1.47l.66-4.63A2,2,0,0,0,20.51,39.11Zm.36,3.76c0,.29-.18,1.61-1.19,1.61a.62.62,0,0,1-.66-.63c0-.46.25-1,1.48-1A1.38,1.38,0,0,1,20.87,42.87Z"/><path id="path4145" class="cls-13" d="M24.39,45.85c.37,0,2.54.1,2.54-2.13s-2-1.68-2-2.51c0-.42.32-.55.92-.55.24,0,1.15.07,1.15.07l.21-1.48a7.94,7.94,0,0,0-1.55-.13c-1.24,0-2.51.49-2.51,2.19,0,1.92,2.11,1.73,2.11,2.54,0,.54-.59.59-1,.59a5.18,5.18,0,0,1-1.49-.26l-.23,1.47A5.61,5.61,0,0,0,24.39,45.85Z"/><path id="path4139" class="cls-13" d="M57.77,37.78,57.41,40a2.21,2.21,0,0,0-1.62-.87c-1.54,0-2.82,1.86-2.82,4,0,1.37.68,2.72,2.08,2.72a2.11,2.11,0,0,0,1.57-.7l-.08.6h1.63l1.29-8ZM57,42.16c0,.89-.43,2.07-1.35,2.07-.6,0-.88-.51-.88-1.3,0-1.3.58-2.16,1.32-2.16S57,41.18,57,42.16Z"/><path id="path4133" class="cls-13" d="M11.41,45.77l1-6,.15,6h1.15l2.16-6-1,6h1.72l1.32-8H15.33l-1.66,4.91-.08-4.91H11.14l-1.35,8Z"/><path id="path4131" class="cls-13" d="M37.29,45.78c.49-2.78.58-5,1.75-4.63a6.39,6.39,0,0,1,.62-1.94,1.25,1.25,0,0,0-.32,0c-.75,0-1.31,1-1.31,1l.15-.94H36.62l-1,6.51Z"/><g id="use8523"><path id="path4149-2" data-name="path4149" class="cls-13" d="M47.74,39.11a5.8,5.8,0,0,0-2,.37l-.24,1.44a5.41,5.41,0,0,1,1.83-.29c.62,0,1.08.07,1.08.58a1.16,1.16,0,0,1,0,.42s-.5,0-.73,0c-1.45,0-3,.62-3,2.49a1.59,1.59,0,0,0,1.62,1.81A2.2,2.2,0,0,0,48,45.12l-.06.64h1.48L50,41.13A2,2,0,0,0,47.74,39.11Zm.36,3.76c0,.29-.18,1.61-1.19,1.61a.62.62,0,0,1-.66-.63c0-.46.25-1,1.48-1A1.38,1.38,0,0,1,48.1,42.87Z"/></g><g id="use8525"><path id="path4131-2" data-name="path4131" class="cls-13" d="M51.39,45.78c.49-2.78.58-5,1.75-4.63a6.33,6.33,0,0,1,.63-1.94,1.39,1.39,0,0,0-.33,0c-.75,0-1.31,1-1.31,1l.15-.94H50.72l-1,6.51Z"/></g><path id="text9407" class="cls-13" d="M59.42,44.77a.55.55,0,0,1,.25.07.44.44,0,0,1,.19.19.47.47,0,0,1,.07.25.48.48,0,0,1-.07.26.47.47,0,0,1-.18.19.62.62,0,0,1-.26.06.54.54,0,0,1-.25-.06.5.5,0,0,1-.19-.19.48.48,0,0,1-.07-.26A.47.47,0,0,1,59,45a.5.5,0,0,1,.19-.19.59.59,0,0,1,.25-.07m0,.09a.54.54,0,0,0-.21,0,.41.41,0,0,0-.16.16.54.54,0,0,0,0,.21.42.42,0,0,0,0,.22.39.39,0,0,0,.16.15.42.42,0,0,0,.21.06.37.37,0,0,0,.21-.06.39.39,0,0,0,.16-.15.43.43,0,0,0,.06-.22.42.42,0,0,0-.06-.21.41.41,0,0,0-.16-.16.54.54,0,0,0-.21,0m-.22.71V45h.33a.13.13,0,0,1,.07.06.19.19,0,0,1,0,.08.13.13,0,0,1,0,.1.16.16,0,0,1-.11,0l0,0,.08.11.07.11h-.11l0-.09a.65.65,0,0,0-.09-.13l-.07,0h-.05v.24H59.2m.09-.31h.1a.14.14,0,0,0,.11,0,.06.06,0,0,0,0-.06.08.08,0,0,0,0,0s0,0,0,0h-.19v.17"/></g></g></g><g id="g4158"><polygon id="polygon9" class="cls-14" points="96.45 47.77 93.1 47.77 95.19 34.82 98.54 34.82 96.45 47.77"/><path id="path11" class="cls-14" d="M108.58,35.14a8.26,8.26,0,0,0-3-.55c-3.3,0-5.63,1.76-5.65,4.28,0,1.86,1.67,2.89,2.94,3.51s1.73,1,1.73,1.62c0,.86-1,1.26-2,1.26a6.59,6.59,0,0,1-3.14-.69l-.44-.2-.47,2.9a10.08,10.08,0,0,0,3.74.69c3.51,0,5.79-1.73,5.82-4.42,0-1.47-.88-2.6-2.81-3.52-1.17-.6-1.89-1-1.89-1.6s.61-1.12,1.93-1.12a5.71,5.71,0,0,1,2.5.5l.3.14.45-2.8Z"/><path id="path13" class="cls-14" d="M113,43.18c.28-.74,1.34-3.62,1.34-3.62l.44-1.24.23,1.12s.64,3.1.78,3.74Zm4.14-8.36h-2.59a1.65,1.65,0,0,0-1.75,1.08l-5,11.87h3.52s.57-1.6.7-1.94h4.3c.09.45.4,1.94.4,1.94h3.1l-2.7-13Z"/><path id="path15" class="cls-14" d="M90.3,34.82,87,43.65l-.36-1.79A10,10,0,0,0,82,36.43l3,11.33h3.54l5.26-12.94Z"/><path id="path17" class="cls-14" d="M84,34.82H78.59l0,.26c4.2,1.08,7,3.67,8.13,6.78l-1.17-6A1.4,1.4,0,0,0,84,34.82Z"/></g><path id="path5348" class="cls-15" d="M173.62,42.91h-1.88a2.17,2.17,0,0,0-1.28.34v-.34h-2.77a2,2,0,0,0-1.21.34v-.34h-5v.34a2.69,2.69,0,0,0-1.37-.34h-3.27v.34a2.33,2.33,0,0,0-1.43-.34h-3.66l-.84.91-.78-.91H144.7v5.92h5.37l.86-.92.81.92h3.31V47.44h.32a3.49,3.49,0,0,0,1.41-.21v1.6h2.74V47.28h.13c.17,0,.18,0,.18.18v1.37h8.29a2.4,2.4,0,0,0,1.38-.37v.37h2.63a3.51,3.51,0,0,0,1.49-.27V59.41h-36.1V41.53h1.73l.39-1h.88l.39,1h3.41v-.72l.31.72h1.76l.31-.73v.73h8.47V40h.17c.12,0,.15,0,.15.2v1.35h4.38v-.37a3.43,3.43,0,0,0,1.63.37h1.84l.4-1h.87l.39,1h3.55v-.9l.54.9h2.85V35.61h-2.82v.7l-.4-.7h-2.89v.7l-.36-.7h-3.9a3.56,3.56,0,0,0-1.7.34v-.34h-2.69V36a1.73,1.73,0,0,0-1.15-.34h-9.85l-.67,1.53-.67-1.53h-3.1v.7l-.35-.7h-2.65l-1.22,2.81V23.18h36.1V42.91M171,40.69h-1.45l-1.92-3.18v3.18h-2.06l-.39-.95h-2.11l-.39.95h-1.18a1.8,1.8,0,0,1-2-2.09,2.24,2.24,0,0,1,.55-1.66,2,2,0,0,1,1.54-.5h1v.92h-1a1,1,0,0,0-.78.26,1.34,1.34,0,0,0-.3,1,1.44,1.44,0,0,0,.29,1,1,1,0,0,0,.7.21H162l1.43-3.34h1.51l1.72,4v-4h1.55l1.78,3v-3h1Zm-13,0h1V36.44h-1Zm-1.11-4a2.37,2.37,0,0,0-1.22-.21h-2.34v4.25h1V39.15h1.08c.37,0,.6,0,.74.18a1.24,1.24,0,0,1,.17.83v.53h1v-.84a1.23,1.23,0,0,0-.17-.77,1.12,1.12,0,0,0-.5-.36,1.18,1.18,0,0,0,.72-1.13,1,1,0,0,0-.52-.94m-4.26,3.16h-2.38V39h2.32v-.88h-2.32v-.76h2.38v-.89h-3.39v4.25h3.39Zm-4.15-3.37h-1.69l-1.22,2.89-1.32-2.89h-1.66v4l-1.72-4h-1.51l-1.82,4.25h1.11l.38-.95h2.12l.39.95h2.06V37.36l1.48,3.33H146l1.47-3.32v3.32h1Zm16.38,2.42-.69-1.69-.69,1.69Zm-8.78-.67a1,1,0,0,1-.5.08h-1.23v-.94h1.25a1,1,0,0,1,.48.07.41.41,0,0,1,.21.38.46.46,0,0,1-.21.41m-16.68.67.69-1.69.69,1.69h-1.38m34.45,7.8c0,.9-.57,1.34-1.6,1.34h-2v-.91h2a.59.59,0,0,0,.41-.11.39.39,0,0,0,.11-.27.37.37,0,0,0-.12-.29.54.54,0,0,0-.35-.09c-.95,0-2.14,0-2.14-1.32,0-.61.38-1.26,1.45-1.26h2v.91h-1.85a.76.76,0,0,0-.4.07.33.33,0,0,0-.15.31.31.31,0,0,0,.22.31,1.05,1.05,0,0,0,.39,0l.54,0a1.56,1.56,0,0,1,1.16.34,1.18,1.18,0,0,1,.31.9m-4.27-.9a1.58,1.58,0,0,0-1.16-.34l-.55,0a1.09,1.09,0,0,1-.39,0,.31.31,0,0,1-.22-.31.33.33,0,0,1,.15-.31.78.78,0,0,1,.41-.07h1.86v-.91h-2c-1.07,0-1.46.65-1.46,1.26,0,1.35,1.19,1.29,2.14,1.32a.53.53,0,0,1,.35.09.35.35,0,0,1,.13.29.36.36,0,0,1-.12.27.59.59,0,0,1-.41.11h-2V48h2c1,0,1.59-.44,1.59-1.34a1.18,1.18,0,0,0-.3-.9m-3.87,1.35h-2.38v-.84h2.32V45.4h-2.32v-.77h2.38v-.88h-3.39V48h3.39ZM161.22,44a2.46,2.46,0,0,0-1.22-.2h-2.34V48h1V46.45h1.09c.37,0,.59,0,.73.19a1.23,1.23,0,0,1,.17.82V48h1v-.85a1.18,1.18,0,0,0-.17-.77A1.16,1.16,0,0,0,161,46a1.19,1.19,0,0,0,.72-1.12,1,1,0,0,0-.53-.95m-5.74-.2h-3.24l-1.3,1.39-1.24-1.39h-4.09V48h4l1.3-1.4,1.25,1.4h2V46.57h1.27c.88,0,1.76-.24,1.76-1.42s-.9-1.4-1.7-1.4m4.93,1.74a1,1,0,0,1-.5.09h-1.23v-.95h1.25a1,1,0,0,1,.48.08.41.41,0,0,1,.21.38.44.44,0,0,1-.21.4m-4.94.21h-1.32V44.63h1.33c.36,0,.61.15.61.52s-.24.55-.62.55m-3.88.18,1.55-1.67v3.4Zm-2.47,1.23h-2.49v-.84h2.22V45.4h-2.22v-.77h2.53l1.12,1.24-1.16,1.24"/><path id="Path_33251" data-name="Path 33251" class="cls-16" d="M237.34,40.68c-6.92,6.88-20,15.84-40.78,18.61h38a2.77,2.77,0,0,0,2.78-2.78V40.68Z"/><g id="Group_6045" data-name="Group 6045"><path id="Path_33252" data-name="Path 33252" class="cls-17" d="M186.6,32.87h-2.27v8h2.26a4.12,4.12,0,0,0,2.84-.92,4,4,0,0,0-2.83-7Zm1.82,6a2.92,2.92,0,0,1-2.13.63h-.41V34.22h.41a2.87,2.87,0,0,1,2.13.64,2.65,2.65,0,0,1,.85,2A2.72,2.72,0,0,1,188.42,38.85Z"/><rect id="Rectangle_2788" data-name="Rectangle 2788" class="cls-17" x="191.59" y="32.87" width="1.55" height="7.96"/><path id="Path_33253" data-name="Path 33253" class="cls-17" d="M197,35.92c-.94-.34-1.21-.57-1.21-1s.49-.88,1.16-.88a1.63,1.63,0,0,1,1.25.64l.81-1.06a3.48,3.48,0,0,0-2.34-.89,2.34,2.34,0,0,0-2.48,2.19V35c0,1.09.5,1.66,2,2.18a6.72,6.72,0,0,1,1.07.45,1,1,0,0,1,.47.83,1.14,1.14,0,0,1-1.15,1.12h-.06a1.83,1.83,0,0,1-1.69-1.06l-1,1A3.13,3.13,0,0,0,196.49,41a2.57,2.57,0,0,0,2.74-2.38,1.76,1.76,0,0,0,0-.23C199.24,37.14,198.71,36.57,197,35.92Z"/><path id="Path_33254" data-name="Path 33254" class="cls-17" d="M199.73,36.85A4.12,4.12,0,0,0,203.82,41h.1a4.37,4.37,0,0,0,2-.46V38.72a2.46,2.46,0,0,1-1.87.87,2.6,2.6,0,0,1-2.68-2.53v-.22a2.65,2.65,0,0,1,2.56-2.73h0a2.6,2.6,0,0,1,2,.89V33.18a4,4,0,0,0-1.91-.49,4.18,4.18,0,0,0-4.23,4.14Z"/><path id="Path_33255" data-name="Path 33255" class="cls-17" d="M218.2,38.22l-2.13-5.35h-1.7L217.75,41h.84L222,32.87h-1.69Z"/><path id="Path_33256" data-name="Path 33256" class="cls-17" d="M222.73,40.83h4.4V39.48h-2.85V37.33H227V36h-2.75V34.22h2.85V32.87h-4.4Z"/><path id="Path_33257" data-name="Path 33257" class="cls-17" d="M233.28,35.22c0-1.49-1-2.35-2.81-2.35h-2.31v8h1.55v-3.2h.21l2.15,3.2H234l-2.51-3.36A2.1,2.1,0,0,0,233.28,35.22Zm-3.11,1.31h-.46V34.12h.48c1,0,1.49.41,1.49,1.18s-.52,1.23-1.51,1.23Z"/><g id="Group_6044" data-name="Group 6044"><g id="Group_6041" data-name="Group 6041"><circle id="Ellipse_396" data-name="Ellipse 396" class="cls-18" cx="210.62" cy="36.88" r="4.24"/><circle id="Ellipse_397" data-name="Ellipse 397" class="cls-19" cx="210.62" cy="36.88" r="4.24"/></g><g id="Group_6043" data-name="Group 6043" class="cls-20"><g class="cls-21"><g id="Group_6042" data-name="Group 6042"><circle id="Ellipse_398" data-name="Ellipse 398" class="cls-22" cx="211.51" cy="37.92" r="4.24"/></g></g></g></g></g><rect class="cls-8" x="181.01" y="23.77" width="56.37" height="35.46" rx="3.91"/></g></g></svg>